<svg id="Layer_1" data-name="Layer 1" xmlns="http://www.w3.org/2000/svg" viewBox="0 0 283.63 406.38"><defs><style>.cls-1{fill:#221d58;}.cls-2{font-size:12px;fill:#fff;font-family:CormorantGaramond-Regular, Cormorant Garamond;}.cls-3{letter-spacing:-0.01em;}.cls-4{letter-spacing:-0.01em;}</style></defs><title>leaf-2</title><g id="_Icon_V1_-_Leaf_Large_Scale_BLUE" data-name=" Icon V1 - Leaf Large Scale BLUE"><path class="cls-1" d="M254.6,188.47C207.17,96.65,160.67,90.56,142.41,0,124.14,90.56,77.64,96.65,30.21,188.47c-33.07,65.21-43,129.14,16.64,158,34.89,15.48,89.43-7.38,92.41.31l3.15-298.22,3.14,298.22c3-7.69,57.52,15.17,92.41-.31C297.64,317.61,287.67,253.68,254.6,188.47Z"/><polygon class="cls-1" points="139.26 346.75 145.55 346.75 146.18 406.38 138.63 406.38 139.26 346.75"/></g><text class="cls-2" transform="translate(75.39 151.15) rotate(-52)">Spiritual</text><text class="cls-2" transform="matrix(0.62, 0.79, -0.79, 0.62, 188.77, 122.24)">Mental</text><text class="cls-2" transform="translate(28.31 231.83) rotate(-65)">Emotional</text><text class="cls-2" transform="translate(248.19 322.91) rotate(-55)">Physi<tspan class="cls-3" x="25.06" y="0">c</tspan><tspan x="29.93" y="0">al</tspan></text><text class="cls-2" transform="translate(160.98 334.46) rotate(8)">Financial</text><text class="cls-2" transform="matrix(0.57, 0.82, -0.82, 0.57, 19.59, 301.19)">Social</text><text class="cls-2" transform="translate(228.59 175.99) rotate(65)">Envi<tspan class="cls-4" x="21.13" y="0">r</tspan><tspan x="25.36" y="0">onmental</tspan></text><text class="cls-2" transform="matrix(0.99, -0.14, 0.14, 0.99, 83.38, 340.74)">Celestial</text></svg>