<?xml version="1.0" encoding="utf-8"?>
<!-- Generator: Adobe Illustrator 23.0.4, SVG Export Plug-In . SVG Version: 6.00 Build 0)  -->
<svg version="1.1" id="Layer_1" xmlns="http://www.w3.org/2000/svg" xmlns:xlink="http://www.w3.org/1999/xlink" x="0px" y="0px"
	 viewBox="0 0 283.6 406.4" style="enable-background:new 0 0 283.6 406.4;" xml:space="preserve">
<style type="text/css">
	.st0{fill:#221D58;}
	.st1{fill:#FFFFFF;}
	.st2{font-family:'CormorantGaramond-Regular';}
	.st3{font-size:12px;}
</style>
<title>leaf</title>
<g id="_Icon_V1_-_Leaf_Large_Scale_BLUE">
	<path class="st0" d="M254.6,188.5C207.2,96.7,160.7,90.6,142.4,0C124.1,90.6,77.6,96.7,30.2,188.5c-33.1,65.2-43,129.1,16.6,158
		c34.9,15.5,89.4-7.4,92.4,0.3l3.1-298.2l3.1,298.2c3-7.7,57.5,15.2,92.4-0.3C297.6,317.6,287.7,253.7,254.6,188.5z"/>
	<polygon class="st0" points="139.3,346.8 145.6,346.8 146.2,406.4 138.6,406.4 	"/>
</g>
<text transform="matrix(0.6157 -0.788 0.788 0.6157 75.3918 151.1473)" class="st1 st2 st3">Spiritual</text>
<text transform="matrix(0.6157 0.788 -0.788 0.6157 188.7686 122.2368)" class="st1 st2 st3">Mental</text>
<text transform="matrix(0.4226 -0.9063 0.9063 0.4226 28.3056 231.8336)" class="st1 st2 st3">Emotional</text>
<text transform="matrix(0.5736 -0.8192 0.8192 0.5736 248.1936 322.9075)" class="st1 st2 st3">Physical</text>
<text transform="matrix(0.9903 0.1392 -0.1392 0.9903 160.9838 334.464)" class="st1 st2 st3">Financial</text>
<text transform="matrix(0.5736 0.8192 -0.8192 0.5736 19.5903 301.1875)" class="st1 st2 st3">Social</text>
<text transform="matrix(0.4226 0.9063 -0.9063 0.4226 228.5884 175.9905)" class="st1 st2 st3">Environmental</text>
<text transform="matrix(0.9903 -0.1392 0.1392 0.9903 83.3761 340.7373)" class="st1 st2 st3">Celestial</text>
</svg>
